<?xml version="1.0" encoding="utf-8"?>
<!-- Generator: Adobe Illustrator 18.0.0, SVG Export Plug-In . SVG Version: 6.00 Build 0)  -->
<!DOCTYPE svg PUBLIC "-//W3C//DTD SVG 1.1//EN" "http://www.w3.org/Graphics/SVG/1.1/DTD/svg11.dtd">
<svg version="1.1" id="Layer_1" xmlns="http://www.w3.org/2000/svg" xmlns:xlink="http://www.w3.org/1999/xlink" x="0px" y="0px"
	 viewBox="0 0 37.8 33.2" enable-background="new 0 0 37.8 33.2" xml:space="preserve">
<g>
	<linearGradient id="SVGID_2_" gradientUnits="userSpaceOnUse" x1="5.4043" y1="16.5972" x2="31.7953" y2="16.5972">
		<stop  offset="8.864350e-03" style="stop-color:#835B00"/>
		<stop  offset="3.971735e-02" style="stop-color:#8E6307"/>
		<stop  offset="0.1559" style="stop-color:#B57C20"/>
		<stop  offset="0.2714" style="stop-color:#D29034"/>
		<stop  offset="0.3847" style="stop-color:#E89F42"/>
		<stop  offset="0.4946" style="stop-color:#F5A74A"/>
		<stop  offset="0.5974" style="stop-color:#F9AA4D"/>
		<stop  offset="0.7469" style="stop-color:#EA9D3E"/>
		<stop  offset="1" style="stop-color:#C87E1D"/>
	</linearGradient>
	<path fill="url(#SVGID_2_)" d="M28.4,3.4H8.8c-1.9,0-3.4,1.5-3.4,3.4v19.6c0,1.9,1.5,3.4,3.4,3.4h19.6c1.9,0,3.4-1.5,3.4-3.4V6.8
		C31.8,4.9,30.3,3.4,28.4,3.4z M24.3,7.5c0-0.6,0.4-1,1-1h2.4c0.6,0,1,0.4,1,1v2.4c0,0.6-0.5,1-1,1h-2.4c-0.6,0-1-0.4-1-1V7.5z
		 M18.6,10.9c3.1,0,5.7,2.5,5.7,5.6c0,3.1-2.5,5.6-5.7,5.6s-5.7-2.5-5.7-5.6C12.9,13.5,15.5,10.9,18.6,10.9z M29.3,26.2
		c0,0.6-0.5,1-1,1H9c-0.6,0-1-0.5-1-1V14.7h2.7c-0.1,0.6-0.2,1.2-0.2,1.9c0,4.5,3.7,8.2,8.2,8.2c4.5,0,8.2-3.7,8.2-8.2
		c0-0.6-0.1-1.3-0.2-1.9h2.7V26.2z"/>
</g>
</svg>
