<?xml version="1.0" encoding="utf-8"?>
<!-- Generator: Adobe Illustrator 18.0.0, SVG Export Plug-In . SVG Version: 6.00 Build 0)  -->
<!DOCTYPE svg PUBLIC "-//W3C//DTD SVG 1.1//EN" "http://www.w3.org/Graphics/SVG/1.1/DTD/svg11.dtd">
<svg version="1.1" id="Layer_1" xmlns="http://www.w3.org/2000/svg" xmlns:xlink="http://www.w3.org/1999/xlink" x="0px" y="0px"
	 viewBox="0 0 37.8 33.2" enable-background="new 0 0 37.8 33.2" xml:space="preserve">
<g>
	<linearGradient id="SVGID_2_" gradientUnits="userSpaceOnUse" x1="2.4892" y1="16.5972" x2="35.2617" y2="16.5972">
		<stop  offset="8.864350e-03" style="stop-color:#835B00"/>
		<stop  offset="3.971735e-02" style="stop-color:#8E6307"/>
		<stop  offset="0.1559" style="stop-color:#B57C20"/>
		<stop  offset="0.2714" style="stop-color:#D29034"/>
		<stop  offset="0.3847" style="stop-color:#E89F42"/>
		<stop  offset="0.4946" style="stop-color:#F5A74A"/>
		<stop  offset="0.5974" style="stop-color:#F9AA4D"/>
		<stop  offset="0.7469" style="stop-color:#EA9D3E"/>
		<stop  offset="1" style="stop-color:#C87E1D"/>
	</linearGradient>
	<path fill="url(#SVGID_2_)" d="M9.5,12.3c-0.2,0-0.5,0.1-0.5,0.3l-0.3,7.5l0.3,3.6c0,0.2,0.2,0.3,0.5,0.3c0.2,0,0.4-0.1,0.5-0.3
		l0.4-3.6L10,12.6C10,12.4,9.8,12.3,9.5,12.3z M3.3,17.7c-0.2,0-0.3,0.1-0.3,0.1l-0.5,2.3L3,22.4c0,0.1,0.1,0.1,0.3,0.1
		c0.2,0,0.3-0.1,0.3-0.1l0.5-2.2l-0.5-2.3C3.6,17.8,3.4,17.7,3.3,17.7z M6.4,14.2c-0.2,0-0.4,0.1-0.4,0.3l-0.4,5.6L6,23.8
		C6,23.9,6.2,24,6.4,24c0.2,0,0.4-0.1,0.4-0.3l0.5-3.7l-0.5-5.6C6.7,14.4,6.6,14.2,6.4,14.2z M12.6,12.3c-0.3,0-0.5,0.2-0.5,0.4
		l-0.3,7.4l0.3,3.5c0,0.2,0.2,0.4,0.5,0.4c0.3,0,0.5-0.2,0.5-0.4l0.3-3.5l-0.3-7.4C13.2,12.5,12.9,12.3,12.6,12.3z M30.5,15.8
		c-0.6,0-1.1,0.1-1.6,0.3c-0.3-3.7-3.8-7-7.7-7c-1,0-1.9,0.2-2.7,0.5c-0.3,0.1-0.4,0.2-0.4,0.5v13.4c0,0.2,0.2,0.5,0.5,0.5
		c0,0,10.5,0,12,0c2.4,0,4.7-1.6,4.7-4.1C35.3,17,32.8,15.8,30.5,15.8z M15.7,11.1c-0.3,0-0.6,0.2-0.6,0.4l-0.2,8.5
		c0,0,0.2,3.5,0.2,3.5c0,0.2,0.3,0.4,0.6,0.4c0.3,0,0.6-0.2,0.6-0.4l0.2-3.5l-0.2-8.5C16.3,11.3,16,11.1,15.7,11.1z"/>
</g>
</svg>
