<?xml version="1.0" encoding="utf-8"?>
<!-- Generator: Adobe Illustrator 18.0.0, SVG Export Plug-In . SVG Version: 6.00 Build 0)  -->
<!DOCTYPE svg PUBLIC "-//W3C//DTD SVG 1.1//EN" "http://www.w3.org/Graphics/SVG/1.1/DTD/svg11.dtd">
<svg version="1.1" id="Layer_1" xmlns="http://www.w3.org/2000/svg" xmlns:xlink="http://www.w3.org/1999/xlink" x="0px" y="0px"
	 viewBox="0 0 37.8 33.2" enable-background="new 0 0 37.8 33.2" xml:space="preserve">
<g>
	<linearGradient id="SVGID_2_" gradientUnits="userSpaceOnUse" x1="5.0963" y1="16.5972" x2="32.6546" y2="16.5972">
		<stop  offset="8.864350e-03" style="stop-color:#835B00"/>
		<stop  offset="3.971735e-02" style="stop-color:#8E6307"/>
		<stop  offset="0.1559" style="stop-color:#B57C20"/>
		<stop  offset="0.2714" style="stop-color:#D29034"/>
		<stop  offset="0.3847" style="stop-color:#E89F42"/>
		<stop  offset="0.4946" style="stop-color:#F5A74A"/>
		<stop  offset="0.5974" style="stop-color:#F9AA4D"/>
		<stop  offset="0.7469" style="stop-color:#EA9D3E"/>
		<stop  offset="1" style="stop-color:#C87E1D"/>
	</linearGradient>
	<path fill="url(#SVGID_2_)" d="M29.6,8.6c2-1.3,2.2-3.1,2.2-3.1c-0.6,0.9-3.5,1.4-3.5,1.4c-2.5-2.9-6.1-1.4-6.1-1.4
		C17.8,7,18.4,12,18.4,12C10.9,11.9,6.8,6.1,6.8,6.1c-2.2,4.7,1.5,7.6,1.5,7.6C7.5,13.8,6,13.1,6,13.1c-0.1,4.3,4.4,5.9,4.4,5.9
		c-0.4,0.1-2.3,0.1-2.3,0.1c1,3.5,5.2,3.9,5.2,3.9c-4.1,3.1-8.2,2.5-8.2,2.5c4,3.1,8,2.7,10.7,2.4c6.7-0.9,10.3-5.8,10.3-5.8
		c4.7-6.1,3.2-11.2,3.9-11.5c0,0,0,0,0,0c0.8-0.4,2.6-2.6,2.6-2.6C31.4,8.6,29.6,8.6,29.6,8.6z"/>
</g>
</svg>
