<?xml version="1.0" encoding="utf-8"?>
<!-- Generator: Adobe Illustrator 18.0.0, SVG Export Plug-In . SVG Version: 6.00 Build 0)  -->
<!DOCTYPE svg PUBLIC "-//W3C//DTD SVG 1.1//EN" "http://www.w3.org/Graphics/SVG/1.1/DTD/svg11.dtd">
<svg version="1.1" id="Layer_1" xmlns="http://www.w3.org/2000/svg" xmlns:xlink="http://www.w3.org/1999/xlink" x="0px" y="0px"
	 viewBox="0 0 37.8 33.2" enable-background="new 0 0 37.8 33.2" xml:space="preserve">
<g>
	<linearGradient id="SVGID_2_" gradientUnits="userSpaceOnUse" x1="3.54" y1="16.5972" x2="34.2109" y2="16.5972">
		<stop  offset="8.864350e-03" style="stop-color:#835B00"/>
		<stop  offset="3.971735e-02" style="stop-color:#8E6307"/>
		<stop  offset="0.1559" style="stop-color:#B57C20"/>
		<stop  offset="0.2714" style="stop-color:#D29034"/>
		<stop  offset="0.3847" style="stop-color:#E89F42"/>
		<stop  offset="0.4946" style="stop-color:#F5A74A"/>
		<stop  offset="0.5974" style="stop-color:#F9AA4D"/>
		<stop  offset="0.7469" style="stop-color:#EA9D3E"/>
		<stop  offset="1" style="stop-color:#C87E1D"/>
	</linearGradient>
	<path fill="url(#SVGID_2_)" d="M10,21.1h1.5v7.4H13v-7.4h1.5v-1.3H10V21.1z M17.4,27c-0.1,0.1-0.3,0.3-0.4,0.3
		c-0.1,0.1-0.3,0.1-0.4,0.1c-0.1,0-0.2,0-0.3-0.1c-0.1-0.1-0.1-0.2-0.1-0.3v-4.9H15v5.3c0,0.4,0.1,0.7,0.2,0.9
		c0.1,0.2,0.4,0.3,0.7,0.3c0.2,0,0.5-0.1,0.7-0.2c0.3-0.1,0.5-0.3,0.7-0.6v0.7h1.3v-6.4h-1.3V27z M22,22c-0.2,0-0.4,0.1-0.6,0.2
		c-0.2,0.1-0.4,0.3-0.5,0.4v-2.8h-1.3v8.7h1.3V28c0.2,0.2,0.4,0.3,0.5,0.4c0.2,0.1,0.4,0.1,0.7,0.1c0.4,0,0.7-0.1,0.9-0.4
		c0.2-0.2,0.3-0.6,0.3-1v-3.5c0-0.5-0.1-0.9-0.3-1.2C22.8,22.2,22.5,22,22,22z M22,27c0,0.2,0,0.4-0.1,0.4c-0.1,0.1-0.2,0.1-0.3,0.1
		c-0.1,0-0.2,0-0.3-0.1c-0.1,0-0.2-0.1-0.3-0.2v-4c0.1-0.1,0.2-0.2,0.3-0.2c0.1,0,0.2-0.1,0.3-0.1c0.2,0,0.3,0.1,0.4,0.2
		c0.1,0.1,0.1,0.3,0.1,0.5V27z M25.9,22c-0.6,0-1,0.2-1.4,0.5c-0.4,0.3-0.5,0.8-0.5,1.4v2.9c0,0.6,0.2,1.1,0.5,1.5
		c0.3,0.4,0.8,0.5,1.4,0.5c0.6,0,1.1-0.2,1.4-0.5c0.3-0.3,0.5-0.8,0.5-1.5v-0.3h-1.3v0.3c0,0.4,0,0.6-0.1,0.7
		c-0.1,0.1-0.2,0.2-0.4,0.2c-0.2,0-0.3-0.1-0.4-0.2c-0.1-0.1-0.1-0.4-0.1-0.7v-1.2h2.4v-1.6c0-0.6-0.2-1.1-0.5-1.4
		C26.9,22.1,26.5,22,25.9,22z M26.4,24.5h-1.1v-0.6c0-0.3,0-0.5,0.1-0.6c0.1-0.1,0.2-0.2,0.4-0.2c0.2,0,0.3,0.1,0.4,0.2
		c0.1,0.1,0.1,0.3,0.1,0.6V24.5z M19,9.8c-0.2,0-0.3,0-0.4,0.1c-0.1,0.1-0.2,0.2-0.2,0.4v3.8c0,0.2,0.1,0.3,0.2,0.4
		c0.1,0.1,0.2,0.2,0.4,0.2c0.2,0,0.3-0.1,0.5-0.2c0.1-0.1,0.2-0.3,0.2-0.4v-3.8c0-0.2-0.1-0.3-0.2-0.4C19.3,9.8,19.2,9.8,19,9.8z
		 M31,4.5H6.7C5,4.5,3.5,5.9,3.5,7.7v6.8c0,1.8,1.4,3.2,3.2,3.2H31c1.8,0,3.2-1.4,3.2-3.2V7.7C34.2,5.9,32.8,4.5,31,4.5z M14.9,11.8
		v4h-1.6V12l-1.9-5.8H13l1.1,3.8h0.1l1-3.8h1.6L14.9,11.8z M21.1,14c0,0.6-0.2,1.1-0.6,1.4C20.2,15.8,19.7,16,19,16
		c-0.6,0-1.1-0.2-1.5-0.5c-0.4-0.4-0.6-0.8-0.6-1.4v-3.6c0-0.5,0.2-1,0.6-1.3c0.4-0.3,0.9-0.5,1.6-0.5c0.6,0,1.1,0.2,1.5,0.5
		c0.4,0.3,0.6,0.8,0.6,1.3V14z M26.4,15.8h-1.4V15c-0.3,0.3-0.5,0.5-0.8,0.7c-0.3,0.1-0.6,0.2-0.8,0.2c-0.3,0-0.6-0.1-0.8-0.3
		c-0.2-0.2-0.3-0.5-0.3-0.9V8.8h1.4v5.4c0,0.2,0,0.3,0.1,0.4c0.1,0.1,0.2,0.1,0.3,0.1c0.1,0,0.2-0.1,0.4-0.1
		c0.2-0.1,0.3-0.2,0.4-0.4V8.8h1.4V15.8z"/>
</g>
</svg>
